Patient4_TMGait_0pt4_02_left_04_EMG.mot
version=1
nRows=26
nColumns=33
inDegrees=no
endheader
time	1LAddLong	2LGlutMax	3LGlutMed	4LIliopsoas	5LSemiMemb	6LBicFemLong	7LRecFem	8LVastMed	9LVastLat	10LGasMed	11LTibAnt	12lTibPost	13LPeroneusLong	14LSol	15LExtDigLong	16LFlexDigLong	17RAddLong	18RGlutMax	19RGlutMed	20RIliopsoas	21RSemiMemb	22RBicFemLong	23RRecFem	24RVastMed	25RVastLat	26RGasMed	27RTibAnt	28RTibPost	29RPeroneusLong	30RSol	31RExtDigLong	32RFlexDigLong
6.71	0.008087	0.070496	-0.001526	0.010071	0.011902	-0.055084	0.05661	-0.002136	0.074463	-0.067902	-0.032501	-0.008392	0.041351	-0.036926	0.044098	-0.00473	0.000916	-0.36301	0.039368	0.026245	0.018616	0.012207	0.050659	0.10056	0.075378	-0.0177	-0.002441	0.009613	0.050049	0.22095	-0.006256	-0.011902
6.711	0.005951	0.033264	0.072479	-0.00412	-0.002441	-0.046539	0.043793	0.003357	0.06546	-0.015869	-0.011292	-0.007629	0.064087	-0.05249	0.036316	-0.003967	0.002441	-0.32272	0.19684	-0.061798	0.018005	0.014038	0.063782	0.055695	0.051575	-0.010071	0.00946	-0.1062	0.023193	0.21423	0	-0.01236
6.712	0.000458	0.033875	0.055237	0.007782	-0.033417	-0.013428	0.046387	-0.005646	0.071869	0.010834	-0.001678	-0.007324	0.098419	-0.032043	0.011444	-0.000153	0.005493	-0.32013	0.14877	-0.046692	0.002441	-0.007019	0.002594	-0.006866	0.062103	0.006866	0.002594	-0.10712	0.049744	-0.007477	-0.000916	-0.01236
6.713	0.005493	0.046844	0.04425	-0.012817	-0.058899	-0.016479	0.038757	-0.00946	0.076752	0.031128	0.00473	-0.006409	0.097046	-0.02243	0.023804	-0.006866	0.002899	-0.28091	0.17425	0.009308	0.003815	-0.010223	-0.076141	0.050659	0.096741	0.015717	-0.00473	0.2214	0.033264	-0.10498	-0.002747	-0.008392
6.714	0.017853	0.000153	0.012054	-0.018158	-0.013123	-0.050049	0.035095	-0.00473	0.066071	0.017853	0.036926	-0.011597	0.059509	-0.010834	0.031281	0.001068	-0.00885	-0.33829	-0.028992	0.09903	0.020447	0.020447	-0.094147	0.19623	0.12573	0.002594	0.003357	0.080872	0.039368	0.003967	-0.003052	-0.013123
6.715	0.017548	0.024261	0.011139	-0.010376	0.015717	-0.04776	0.047302	-0.004578	0.079041	0.010834	0.068207	-0.007629	0.028229	-0.02655	-0.007782	0.006409	-0.004883	-0.36209	-0.23956	0.021973	0.012054	0.010223	-0.064392	-0.000763	0.023804	-0.000305	0.036316	0.032806	0.082855	0.085754	-0.003357	-0.010681
6.716	0.011749	-0.010986	-0.005646	0.013733	0.056763	-0.046692	0.034485	-0.004425	0.067596	-0.009766	0.077515	-0.008698	0.026398	-0.063934	-0.02243	-0.006256	0.019531	-0.30228	-0.51636	-0.073242	-0.002899	-0.001526	-0.042419	-0.094604	-0.032043	0.001068	0.018005	0.039825	0.052948	0.042267	-0.002899	0.002289
6.717	0.008698	0.019073	-0.004883	0.017853	0.028839	-0.025787	0.044098	0.003815	0.065765	-0.034332	-0.001373	-0.007782	0.0354	-0.094757	-0.007477	0.004578	0.015411	-0.29205	-0.16434	-0.058441	-0.002594	-0.009308	-0.043488	-0.094757	-0.011902	0.005035	-0.036621	0.015717	-0.14008	-0.093079	-0.002441	-0.001831
6.718	0.009003	-0.022583	-0.009918	0.001068	0.007935	-0.042114	0.043488	0.000458	0.071716	-0.031128	-0.074921	-0.011292	0.065002	-0.094299	0.001373	0.00412	0.015869	-0.32638	-0.25726	0.044708	0.003357	0.010834	-0.03006	-0.03952	0.00946	0.003357	-0.039825	0.003357	-0.32364	-0.097046	-0.002136	-0.006714
6.719	-0.000305	-0.027008	0.00473	0.021362	0.001373	-0.027313	0.046234	-0.003357	0.069733	-0.028839	-0.023651	-0.014648	0.056763	-0.086517	0.013885	-0.008545	0.010223	-0.3186	-0.32074	0.069885	0.001831	0.001984	0.007019	-0.03952	0.046692	-0.006714	0.040436	-0.00061	-0.2742	-0.17059	-0.001526	-0.002289
6.72	0.001068	-0.02121	-0.001221	0.005188	0.031433	-0.021515	0.054016	0.003204	0.069885	-0.024567	-0.02533	-0.013885	0.049896	-0.11993	0.009613	-0.005188	0.011292	-0.22812	0.078888	0.007629	-0.002136	-0.003204	0.010376	-0.011902	0.085907	-0.002136	0.070648	-0.011292	0.33157	-0.034332	-0.001221	-0.009308
6.721	0.004883	-0.040131	-0.039063	0.005035	0.028229	-0.023346	0.050354	-0.007782	0.07431	-0.020599	-0.013123	-0.007172	0.032043	-0.13367	0.005035	-0.00946	0.00412	-0.16937	0.45487	-0.000916	0.006409	0.008698	0.008087	0.001678	0.071259	-0.006409	0.056458	-0.01297	-0.040131	0.061035	-0.003967	-0.005951
6.722	0.007629	-0.018616	-0.074005	0.011749	0.037689	-0.000458	0.046997	-0.005646	0.075531	-0.033417	-0.003967	-0.000763	0.029907	-0.061798	0.004883	-0.00412	0.015717	-0.092926	0.83038	0.017548	0.005341	-0.003815	0.020142	-0.011749	0.04425	-0.000458	0.002899	-0.011444	-0.5571	0.051422	-0.00351	-0.018158
6.723	0.00473	-0.005493	-0.083618	0.007629	0.009308	0.006104	0.052948	-0.002289	0.079193	-0.026245	0.002289	0.000916	0.011139	-0.05127	-0.00412	-0.005188	0.012512	-0.071564	0.81009	-0.016937	0	0.016632	0.012512	0.026245	0.022888	0.001526	-0.037689	-0.009155	-0.35965	0.016327	0.009155	-0.014343
6.724	-0.00824	0.017548	-0.046234	0.011902	-0.007019	-0.005035	0.055084	0.000916	0.079803	-0.021057	0.003662	-0.006561	0.009766	-0.1091	-0.002441	-0.00412	0.009613	-0.068512	0.2681	-0.032806	-0.009613	0.031738	-0.001068	-0.014343	-0.007324	0.002136	0.000458	-0.006561	0.12085	-0.028839	-0.002747	-0.019531
6.725	-0.004578	-0.005035	0.008087	0.010834	-0.0177	-0.000458	0.06073	0.003967	0.084076	-0.023956	0.001678	0.005798	0.014648	-0.092926	0.005188	-0.007019	0.016327	-0.075989	-0.12497	-0.07019	-0.016174	0.045013	-0.023346	-0.015564	-0.042572	0.003357	0.001678	-0.011139	0.79437	-0.016479	-0.002136	-0.012054
6.726	0.002289	0.00412	-0.019989	0.004272	-0.039673	-0.038605	0.061798	0.000153	0.076447	-0.039368	-0.006104	0.003662	0.014191	-0.050964	0.005493	0.009918	0.009613	-0.089722	-0.50156	-0.11292	0.007629	0.036926	-0.071564	0.035706	-0.068665	0.019073	-0.037537	-0.011597	0.61661	0.010529	-0.000153	-0.018311
6.727	0.007782	-0.015106	0.024567	-0.011902	-0.00351	-0.038757	0.048065	-0.000458	0.069275	-0.029144	0.002136	0.005798	0.027771	-0.023804	0.016937	-0.001373	0.015564	-0.041199	-0.67398	-0.11292	0.033264	-0.009003	-0.012054	0.018463	-0.04303	0.027771	-0.037994	-0.011902	0.13809	0.028687	-0.010376	-0.01709
6.728	0.014496	-0.031281	-0.007935	-0.004272	0.066071	-0.059509	0.046234	-0.001526	0.06134	-0.045166	0.00473	0.001831	0.008087	-0.058594	0.000916	0.002441	0.040894	-0.016022	-0.83939	-0.006104	0.068054	-0.052338	0.010986	-0.031586	-0.037079	0.034332	-0.039673	-0.008087	-0.13534	0.07019	-0.002747	-0.01236
6.729	0.003357	-0.018921	-0.00473	-0.007935	0.074005	-0.062714	0.046844	0.000763	0.049744	-0.05661	0.010529	0	-0.001221	-0.063324	0.007782	-0.005646	0.027008	-0.079498	-0.9465	0.007019	-0.056763	-0.050507	-0.003204	0.003967	-0.017395	0.029755	0.019836	-0.008545	-0.02594	-0.013123	-0.00061	-0.010986
6.73	0.002289	-0.043182	0.006409	0.007629	0.036926	-0.012817	0.035553	0.001984	0.054626	-0.053406	0.001678	0.000153	0.003204	-0.055695	0.001831	-0.005493	-0.001678	-0.020905	-0.032654	0.024719	-0.17746	0.020599	-0.00061	-0.011292	-0.006714	-0.021057	-0.004272	-0.00824	0.13565	-0.056458	-0.004578	-0.016785
6.731	0.00824	-0.065002	-0.036316	0.009155	0.025024	0.010834	0.038452	0.003815	0.048065	-0.039978	-0.044098	-0.006714	0.011292	-0.037079	-0.003662	-0.006561	-0.001068	-0.013123	0.36224	0.088806	-0.079803	0.010376	0.035248	-0.034637	-0.000763	-0.041809	-0.099335	-0.009308	0.24185	-0.020905	-0.003052	-0.013733
6.732	-0.001221	-0.052948	-0.077972	0.012665	0.032043	0.012207	0.034943	-0.003052	0.053558	-0.029602	-0.060425	-0.000153	0.019836	-0.057678	-0.000763	-0.005188	0.029755	0.014954	0.34851	0.072784	0.024414	0.036621	0.094147	-0.07782	-0.022888	-0.068207	-0.023804	-0.010071	-0.1326	-0.035248	-0.004272	-0.010376
6.733	0.014801	-0.041046	-0.097351	-0.002441	-0.005493	0.040283	0.036163	-0.003052	0.065918	-0.02121	-0.06424	-0.000763	-0.006409	-0.04715	-0.005646	-0.007172	0.023499	-0.010071	-0.35889	0.09079	-0.029755	0.078583	0.047913	-0.11368	-0.028381	-0.082092	0.052185	-0.013123	-0.38559	0.004578	-0.004272	-0.021973
6.734	0.010071	-0.023804	-0.053253	0.005035	-0.05722	0.035095	0.02243	0.007935	0.072937	-0.036316	-0.03479	0.002594	0.012512	-0.04715	-0.017395	0.002136	0.02594	0.012665	-0.032806	0.028687	-0.016327	0.045776	0.026398	-0.055847	-0.031433	-0.055847	0.031281	-0.01236	-0.09552	-0.37338	-0.001831	-0.03479
6.735	0.010986	-0.03891	-0.002289	-0.013885	-0.091248	0.001984	0.037994	-0.000916	0.066986	-0.032043	0.092926	0.005035	0.017242	-0.042572	-0.003967	0.002136	-0.006104	0.03006	0.3157	0.036926	0.13977	0.002594	-0.037537	0.042419	-0.005493	0.016479	0.036621	-0.031281	-0.37537	-0.5159	-0.003204	-0.02655
